<?xml version="1.0" standalone="no"?>
<!DOCTYPE svg PUBLIC "-//W3C//DTD SVG 20010904//EN"
 "http://www.w3.org/TR/2001/REC-SVG-20010904/DTD/svg10.dtd">
<svg version="1.0" xmlns="http://www.w3.org/2000/svg"
 width="256.000000pt" height="256.000000pt" viewBox="0 0 256.000000 256.000000"
 preserveAspectRatio="xMidYMid meet">
<metadata>
Created by potrace 1.14, written by Peter Selinger 2001-2017
</metadata>
<g transform="translate(0.000000,256.000000) scale(0.100000,-0.100000)"
fill="#000000" stroke="none">
<path d="M1288 2442 c-16 -2 -52 -25 -83 -53 -75 -69 -109 -143 -135 -291 -28
-161 -29 -163 -81 -166 -23 -2 -45 -5 -48 -7 -4 -2 -40 -6 -81 -10 -105 -9
-201 -36 -323 -93 -127 -60 -203 -116 -273 -201 -116 -139 -168 -287 -169
-471 0 -138 7 -188 41 -283 43 -118 110 -228 189 -307 14 -14 25 -31 25 -38 0
-6 8 -12 18 -13 11 -1 9 -4 -8 -9 l-25 -8 26 -1 c29 -1 54 -24 45 -40 -4 -5
-1 -13 5 -17 8 -4 9 -3 5 4 -4 7 -1 12 9 12 9 0 14 -4 11 -9 -3 -5 8 -14 24
-21 17 -7 30 -17 30 -22 0 -6 -8 -4 -17 3 -10 8 -14 9 -10 2 4 -6 3 -14 -3
-18 -5 -3 -10 -1 -10 6 0 7 -3 10 -6 6 -3 -3 -3 -11 1 -17 5 -8 11 -8 21 1 8
6 14 8 14 4 0 -4 7 -1 17 6 15 13 15 12 6 -6 -6 -11 -8 -26 -5 -34 3 -8 0 -11
-6 -7 -6 3 -13 2 -16 -3 -4 -5 1 -8 9 -7 18 3 26 10 28 28 2 12 9 18 22 18 2
0 1 -10 -4 -23 -7 -18 -6 -24 5 -24 8 0 13 6 10 13 -3 8 0 16 6 20 7 5 8 3 4
-5 -5 -8 -3 -12 5 -10 28 3 49 -1 49 -11 0 -5 -8 -7 -18 -4 -14 5 -14 4 -2 -4
8 -6 19 -7 25 -3 16 12 38 7 42 -9 4 -13 3 -13 -6 0 -10 13 -11 13 -11 0 0
-13 -1 -13 -11 0 -9 13 -10 13 -6 0 2 -8 9 -16 15 -16 7 -1 13 -2 15 -4 1 -1
11 -3 21 -5 10 -2 23 -10 27 -17 5 -7 9 -8 9 -3 0 6 9 11 21 12 17 2 18 -1 8
-13 -6 -8 -9 -17 -5 -21 3 -3 6 -1 6 5 0 6 7 9 15 6 8 -3 25 6 40 20 l25 25
-5 -31 c-5 -24 -3 -29 9 -25 9 4 20 -1 26 -11 10 -15 10 -15 6 3 -3 11 -1 27
4 35 8 12 10 10 11 -10 1 -14 1 -28 1 -31 -1 -3 5 -6 13 -6 8 0 12 4 9 9 -3 4
4 8 16 8 12 0 18 5 15 10 -3 6 -1 10 4 10 6 0 11 -4 11 -10 0 -5 5 -10 11 -10
7 0 18 -8 25 -17 13 -17 14 -17 7 2 -5 16 -4 18 8 9 13 -10 23 -13 62 -15 6 0
29 2 50 5 25 4 36 2 35 -5 -2 -6 5 -13 15 -14 10 -2 14 1 10 8 -4 6 -1 8 8 5
16 -5 51 26 41 38 -4 5 0 3 10 -4 13 -10 17 -10 22 0 3 7 3 1 1 -14 -4 -29 9
-46 20 -28 4 6 10 8 15 5 5 -3 11 -1 14 4 10 16 -15 25 -26 10 -8 -12 -9 -11
-6 1 5 18 64 22 78 5 7 -8 5 -12 -5 -12 -8 0 -12 4 -9 9 3 4 0 8 -5 8 -6 0
-11 -4 -11 -8 0 -11 34 -42 46 -42 5 0 4 4 -3 8 -8 5 0 18 25 41 20 19 34 31
30 26 -4 -4 -3 -16 2 -26 7 -12 6 -20 -2 -25 -7 -5 -8 -3 -3 6 5 9 4 11 -3 6
-19 -11 -14 -25 7 -23 11 0 18 4 15 8 -2 3 7 7 21 7 16 0 22 -5 18 -12 -4 -6
1 -5 10 3 11 9 17 10 17 2 0 -6 5 -11 11 -11 8 0 9 4 0 13 -6 8 -7 18 -3 23 4
4 -1 2 -10 -5 -10 -7 -18 -9 -18 -4 0 5 -7 10 -15 10 -8 0 -11 -5 -8 -10 3 -6
1 -7 -5 -3 -18 11 -14 29 4 22 12 -5 14 -1 10 17 l-6 22 11 -22 c14 -27 31
-31 23 -6 -4 10 3 5 14 -10 15 -23 21 -25 25 -13 4 9 2 16 -3 16 -6 0 -10 4
-10 10 0 5 7 7 15 4 11 -4 14 -13 9 -28 -6 -21 -6 -21 10 -1 15 19 16 19 6 -8
-7 -19 -7 -26 0 -22 6 3 10 13 10 21 0 15 21 15 31 0 9 -11 31 3 24 15 -4 5
-2 9 4 9 6 0 8 7 5 15 -4 8 -1 15 6 15 6 0 8 5 4 12 -4 6 3 4 17 -5 30 -21 46
-22 29 -2 -10 13 -11 18 -1 28 10 9 11 8 5 -7 -5 -13 -4 -17 4 -12 6 3 13 2
17 -4 3 -5 11 -10 16 -10 6 0 7 6 2 13 -18 28 -12 39 12 23 30 -20 35 -20 35
-2 0 15 37 32 47 23 3 -3 0 -14 -7 -24 -11 -17 -11 -17 -6 0 4 12 2 17 -6 14
-7 -2 -12 -10 -10 -16 1 -6 -3 -11 -10 -11 -6 0 -3 -7 8 -15 10 -8 24 -14 29
-15 6 0 3 5 -5 10 -8 5 -12 10 -7 11 4 1 12 3 17 4 6 1 15 3 20 4 6 0 10 6 10
12 0 5 -5 7 -10 4 -6 -3 -10 -1 -10 4 0 16 20 13 26 -4 4 -8 10 -15 15 -15 6
0 5 9 -1 20 -6 11 -17 20 -25 20 -8 0 -15 5 -15 10 0 6 3 9 8 9 20 -3 25 2 12
12 -12 8 -12 10 -1 7 8 -2 21 -15 30 -28 11 -16 12 -22 3 -16 -11 7 -11 4 0
-13 7 -12 16 -21 21 -21 4 0 5 -5 1 -12 -5 -7 -3 -8 5 -4 9 6 9 12 -3 25 -15
17 -12 31 6 31 5 0 6 -6 2 -12 -5 -9 -2 -8 10 1 9 8 15 20 12 28 -3 7 -1 13 4
13 6 0 20 11 32 25 20 23 38 25 38 4 0 -6 -5 -7 -12 -3 -7 4 -8 3 -4 -4 11
-18 23 -14 29 8 3 11 1 18 -3 15 -5 -3 -11 -1 -15 4 -3 6 -13 7 -22 4 -10 -4
-14 -2 -9 5 3 6 1 14 -5 18 -8 5 -9 3 -4 -6 5 -9 4 -11 -3 -6 -11 7 -17 -6
-13 -27 1 -5 -9 -6 -21 -2 -18 5 -20 4 -8 -4 8 -6 10 -11 4 -11 -6 0 -18 8
-25 17 -7 10 -9 15 -5 11 5 -4 15 0 22 10 7 9 18 17 26 17 7 1 12 7 10 14 -1
7 2 10 8 6 5 -3 10 -2 10 3 0 6 11 13 25 16 14 4 24 10 21 15 -3 4 3 14 12 22
9 8 28 29 42 46 13 17 28 29 32 27 4 -3 5 2 2 10 -3 9 -2 16 4 16 5 0 12 9 15
21 4 13 10 18 18 13 7 -4 10 -3 6 4 -4 5 6 40 22 76 86 189 97 375 40 631 -50
223 -253 424 -492 490 -28 8 -77 21 -107 30 -65 19 -210 28 -262 16 l-37 -9
-22 52 c-39 91 -32 201 16 263 19 23 31 28 72 29 65 2 79 6 114 35 32 26 34
36 19 89 -12 44 -34 58 -105 65 -31 4 -64 7 -73 9 -9 1 -29 0 -44 -2z m682
-2022 c0 -5 -12 -17 -27 -27 -16 -9 -34 -24 -42 -32 -11 -14 -12 -13 -6 8 5
15 4 21 -3 17 -6 -3 -14 -1 -17 5 -11 17 3 23 20 9 12 -10 21 -10 41 -1 14 6
22 16 19 21 -3 6 -1 10 4 10 6 0 11 -4 11 -10z m-40 -60 c0 -5 -2 -10 -4 -10
-3 0 -8 5 -11 10 -3 6 -1 10 4 10 6 0 11 -4 11 -10z m-1239 -50 c6 0 8 4 5 8
-3 5 1 9 9 9 8 0 12 -4 9 -9 -3 -4 0 -8 5 -8 6 0 11 -4 11 -9 0 -6 -10 -7 -22
-5 -13 3 -28 6 -35 6 -6 1 -8 8 -5 17 4 10 7 11 10 3 2 -7 8 -12 13 -12z m79
-11 c0 -14 -17 -10 -23 5 -4 10 -1 13 9 9 7 -3 14 -9 14 -14z m10 -14 c-7 -8
-16 -15 -21 -15 -5 0 -1 8 9 18 20 22 31 19 12 -3z m810 21 c0 -3 -4 -8 -10
-11 -5 -3 -10 -1 -10 4 0 6 5 11 10 11 6 0 10 -2 10 -4z m-743 -21 c0 -8 -6
-16 -14 -19 -11 -4 -11 -1 -3 14 13 24 17 25 17 5z m758 -14 c1 -21 -2 -27
-11 -21 -6 6 -14 7 -17 3 -4 -3 -7 -1 -7 5 0 6 -9 14 -21 17 -11 4 -18 9 -16
12 3 2 15 -1 28 -7 18 -10 23 -9 31 4 12 22 13 21 13 -13z m-695 -6 c0 -2 -6
-5 -13 -8 -8 -3 -14 1 -14 8 0 7 6 11 14 8 7 -3 13 -6 13 -8z m100 -8 c0 -4 6
-5 13 0 6 4 31 8 54 8 34 0 40 -2 30 -13 -8 -10 -12 -11 -15 -2 -3 7 -11 5
-25 -7 -19 -16 -20 -16 -8 0 8 10 9 17 3 17 -6 0 -13 -4 -17 -9 -3 -6 -15 -7
-28 -5 -12 3 -28 6 -34 6 -7 1 -13 5 -13 9 0 4 9 7 20 6 11 -1 20 -5 20 -10z
m142 4 c8 11 11 11 15 1 4 -10 8 -10 21 0 15 12 15 11 4 -4 -8 -10 -20 -14
-29 -11 -10 4 -14 2 -9 -5 3 -6 1 -14 -5 -18 -7 -4 -9 -3 -5 4 3 6 2 13 -4 17
-5 3 -10 12 -9 18 0 8 3 7 6 -2 5 -11 7 -11 15 0z m218 -3 c0 -4 -4 -8 -9 -8
-6 0 -12 4 -15 8 -3 5 1 9 9 9 8 0 15 -4 15 -9z"/>
<path d="M2126 598 c3 -5 10 -6 15 -3 13 9 11 12 -6 12 -8 0 -12 -4 -9 -9z"/>
<path d="M2185 560 c-3 -6 1 -7 9 -4 18 7 21 14 7 14 -6 0 -13 -4 -16 -10z"/>
<path d="M2149 523 c-13 -16 -12 -17 4 -4 16 13 21 21 13 21 -2 0 -10 -8 -17
-17z"/>
<path d="M2042 521 c-11 -6 -9 -9 6 -13 15 -4 19 -2 15 8 -6 16 -4 16 -21 5z"/>
<path d="M2115 520 c3 -5 8 -10 11 -10 2 0 4 5 4 10 0 6 -5 10 -11 10 -5 0 -7
-4 -4 -10z"/>
<path d="M2216 498 c3 -4 11 -5 19 -1 21 7 19 12 -4 10 -11 0 -18 -5 -15 -9z"/>
<path d="M2094 486 c1 -8 5 -18 8 -22 4 -3 5 1 4 10 -1 8 -5 18 -8 22 -4 3 -5
-1 -4 -10z"/>
<path d="M2393 485 c0 -8 4 -12 9 -9 5 3 6 10 3 15 -9 13 -12 11 -12 -6z"/>
<path d="M2006 473 c-6 -14 -9 -15 -15 -4 -5 8 -11 9 -15 3 -3 -5 1 -13 10
-16 9 -4 17 -5 18 -4 1 2 8 11 15 21 7 9 9 17 3 17 -5 0 -13 -8 -16 -17z"/>
<path d="M336 462 c-3 -5 1 -9 9 -9 8 0 12 4 9 9 -3 4 -7 8 -9 8 -2 0 -6 -4
-9 -8z"/>
<path d="M1925 440 c-3 -5 -1 -10 4 -10 6 0 11 5 11 10 0 6 -2 10 -4 10 -3 0
-8 -4 -11 -10z"/>
<path d="M2035 440 c26 -11 35 -12 35 -2 0 4 -12 8 -27 9 -24 1 -25 1 -8 -7z"/>
<path d="M2155 440 c-3 -5 -1 -10 4 -10 6 0 11 5 11 10 0 6 -2 10 -4 10 -3 0
-8 -4 -11 -10z"/>
<path d="M2100 426 c0 -2 8 -10 18 -17 15 -13 16 -12 3 4 -13 16 -21 21 -21
13z"/>
<path d="M2034 386 c1 -14 4 -28 7 -31 3 -3 5 6 5 19 -1 14 -4 28 -7 31 -3 3
-5 -6 -5 -19z"/>
<path d="M2145 400 c-3 -6 1 -7 9 -4 18 7 21 14 7 14 -6 0 -13 -4 -16 -10z"/>
<path d="M2069 383 c-13 -16 -12 -17 4 -4 16 13 21 21 13 21 -2 0 -10 -8 -17
-17z"/>
<path d="M1967 376 c-9 -7 -17 -18 -17 -25 0 -6 9 -2 21 10 24 24 22 33 -4 15z"/>
<path d="M1990 349 c0 -5 -6 -7 -12 -3 -7 4 -9 3 -5 -1 13 -15 36 -14 30 1 -6
17 -13 18 -13 3z"/>
<path d="M2016 347 c3 -10 9 -15 12 -12 3 3 0 11 -7 18 -10 9 -11 8 -5 -6z"/>
<path d="M563 335 c-3 -9 -3 -18 -1 -21 3 -3 8 4 11 16 6 23 -1 27 -10 5z"/>
<path d="M2090 339 c0 -5 5 -7 10 -4 6 3 10 8 10 11 0 2 -4 4 -10 4 -5 0 -10
-5 -10 -11z"/>
<path d="M1930 320 c0 -5 5 -10 10 -10 6 0 10 5 10 10 0 6 -4 10 -10 10 -5 0
-10 -4 -10 -10z"/>
<path d="M1727 309 c9 -9 10 -16 1 -26 -9 -11 -13 -10 -24 4 -11 14 -14 14
-12 3 3 -16 -33 -22 -43 -7 -4 5 -10 4 -13 -2 -4 -6 -1 -11 6 -11 11 0 11 -2
0 -9 -10 -6 -10 -10 3 -21 13 -11 14 -10 8 6 -6 17 -5 18 12 4 11 -9 16 -10
11 -2 -8 13 -4 14 54 17 54 3 60 4 60 13 0 5 -12 15 -27 23 -43 21 -49 22 -36
8z m43 -28 c0 -6 -9 -9 -19 -8 -11 0 -17 5 -15 9 7 11 34 10 34 -1z"/>
<path d="M595 300 c-3 -5 -1 -10 4 -10 6 0 11 5 11 10 0 6 -2 10 -4 10 -3 0
-8 -4 -11 -10z"/>
<path d="M1840 290 c-8 -5 -11 -12 -8 -16 4 -3 14 1 23 10 18 17 9 21 -15 6z"/>
<path d="M633 275 c0 -8 4 -12 9 -9 4 3 8 9 8 15 0 5 -4 9 -8 9 -5 0 -9 -7 -9
-15z"/>
<path d="M1790 256 c0 -2 8 -10 18 -17 15 -13 16 -12 3 4 -13 16 -21 21 -21
13z"/>
<path d="M920 235 c-8 -9 -8 -15 0 -20 6 -4 9 -1 8 7 -2 8 4 12 15 10 21 -3
23 4 3 11 -8 3 -20 0 -26 -8z"/>
<path d="M1220 240 c0 -6 -6 -8 -12 -4 -7 4 -10 3 -5 -1 4 -5 -1 -18 -10 -29
-18 -21 -18 -21 3 -3 11 9 24 14 29 10 4 -5 5 -3 2 4 -4 6 -2 13 5 15 9 3 9 6
0 12 -7 4 -12 2 -12 -4z"/>
<path d="M1380 235 c-7 -9 -11 -17 -9 -20 3 -2 10 5 17 15 14 24 10 26 -8 5z"/>
<path d="M1695 240 c3 -5 8 -10 11 -10 2 0 4 5 4 10 0 6 -5 10 -11 10 -5 0 -7
-4 -4 -10z"/>
<path d="M1730 239 c0 -5 5 -7 10 -4 6 3 10 8 10 11 0 2 -4 4 -10 4 -5 0 -10
-5 -10 -11z"/>
<path d="M1570 220 c0 -5 5 -10 11 -10 5 0 7 5 4 10 -3 6 -8 10 -11 10 -2 0
-4 -4 -4 -10z"/>
<path d="M1616 222 c-3 -5 1 -9 9 -9 8 0 12 4 9 9 -3 4 -7 8 -9 8 -2 0 -6 -4
-9 -8z"/>
<path d="M1075 211 c-3 -5 -2 -12 3 -15 5 -3 9 1 9 9 0 17 -3 19 -12 6z"/>
<path d="M1100 216 c0 -2 7 -7 16 -10 8 -3 12 -2 9 4 -6 10 -25 14 -25 6z"/>
<path d="M1283 210 c-13 -5 -23 -11 -23 -14 0 -7 40 6 46 15 6 10 6 10 -23 -1z"/>
</g>
</svg>
